0
SECTION
2
HEADER
9
$INSUNITS
70
4
9
$ACADVER
1
AC1014
9
$HANDSEED
5
FFFF
0
ENDSEC
0
SECTION
2
TABLES
0
TABLE
2
VPORT
5
8
100
AcDbSymbolTable
0
ENDTAB
0
TABLE
2
LTYPE
5
5
100
AcDbSymbolTable
0
LTYPE
5
14
100
AcDbSymbolTableRecord
100
AcDbLinetypeTableRecord
2
BYBLOCK
70
0
0
LTYPE
5
15
100
AcDbSymbolTableRecord
100
AcDbLinetypeTableRecord
2
BYLAYER
70
0
0
ENDTAB
0
TABLE
2
LAYER
5
2
100
AcDbSymbolTable
70
2
0
LAYER
5
50
100
AcDbSymbolTableRecord
100
AcDbLayerTableRecord
2
0
70
0
6
CONTINUOUS
0
ENDTAB
0
TABLE
2
STYLE
5
3
100
AcDbSymbolTable
70
1
0
STYLE
5
11
100
AcDbSymbolTableRecord
100
AcDbTextStyleTableRecord
2
STANDARD
70
0
0
ENDTAB
0
TABLE
2
VIEW
5
6
100
AcDbSymbolTable
70
0
0
ENDTAB
0
TABLE
2
UCS
5
7
100
AcDbSymbolTable
70
0
0
ENDTAB
0
TABLE
2
APPID
5
9
100
AcDbSymbolTable
70
2
0
APPID
5
12
100
AcDbSymbolTableRecord
100
AcDbRegAppTableRecord
2
ACAD
70
0
0
ENDTAB
0
TABLE
2
DIMSTYLE
5
A
100
AcDbSymbolTable
70
1
0
ENDTAB
0
TABLE
2
BLOCK_RECORD
5
1
100
AcDbSymbolTable
70
1
0
BLOCK_RECORD
5
1F
100
AcDbSymbolTableRecord
100
AcDbBlockTableRecord
2
*MODEL_SPACE
0
BLOCK_RECORD
5
1B
100
AcDbSymbolTableRecord
100
AcDbBlockTableRecord
2
*PAPER_SPACE
0
ENDTAB
0
ENDSEC
0
SECTION
2
BLOCKS
0
BLOCK
5
20
100
AcDbEntity
100
AcDbBlockBegin
2
*MODEL_SPACE
0
ENDBLK
5
21
100
AcDbEntity
100
AcDbBlockEnd
0
BLOCK
5
1C
100
AcDbEntity
100
AcDbBlockBegin
2
*PAPER_SPACE
0
ENDBLK
5
1D
100
AcDbEntity
100
AcDbBlockEnd
0
ENDSEC
0
SECTION
2
ENTITIES
0
LINE
5
100
100
AcDbEntity
8
0
100
AcDbLine
10
116.30000000000024
20
75.767500000000069
30
0
11
-10.699999999999967
21
75.767500000000069
31
-7.8961220754591544e-44
0
LINE
5
101
100
AcDbEntity
8
0
100
AcDbLine
10
116.30000000000024
20
75.767500000000069
30
0
11
126.30000000000025
21
75.767500000000069
31
8.2251271619380193e-45
0
LINE
5
102
100
AcDbEntity
8
0
100
AcDbLine
10
126.30000000000025
20
75.767500000000069
30
8.2251271619380193e-45
11
126.30000000000022
21
67.767500000000055
31
-4.4408920985006277e-15
0
ARC
5
103
100
AcDbEntity
8
0
100
AcDbCircle
10
121.30000000000167
20
67.767500000000084
30
0
40
4.9999999999985452
210
4.2415591678741831e-16
220
4.2415591678741225e-16
230
1
100
AcDbArc
50
314.99999999999955
51
360
0
LINE
5
104
100
AcDbEntity
8
0
100
AcDbLine
10
124.83553390593336
20
64.231966094068341
30
9.8607613152597784e-31
11
121.76446609406685
21
61.160898282201863
31
0
0
ARC
5
105
100
AcDbEntity
8
0
100
AcDbCircle
10
125.29999999999845
20
57.625364376270241
30
-4.4408920985006262e-15
40
4.9999999999984013
210
1.3471174527814353e-15
220
9.1043485834008238e-17
230
1
100
AcDbArc
50
134.99999999999986
51
180
0
LINE
5
106
100
AcDbEntity
8
0
100
AcDbLine
10
120.30000000000027
20
51.625364376270127
30
-4.4408920985006262e-15
11
120.30000000000027
21
47.625364376270142
31
-4.1885686838130511e-15
0
LINE
5
107
100
AcDbEntity
8
0
100
AcDbLine
10
120.30000000000027
20
47.625364376270142
30
-4.1885686838130511e-15
11
120.30000000000004
21
-4.5903643762702462
31
0
0
LINE
5
108
100
AcDbEntity
8
0
100
AcDbLine
10
120.30000000000004
20
-4.5903643762702462
30
0
11
120.30000000000001
21
-8.5903643762702302
31
2.5232341468761375e-16
0
LINE
5
109
100
AcDbEntity
8
0
100
AcDbLine
10
120.30000000000004
20
-14.590364376270122
30
-4.4408920985006262e-15
11
120.30000000000001
21
-8.5903643762702284
31
-4.4408920985006262e-15
0
ARC
5
110
100
AcDbEntity
8
0
100
AcDbCircle
10
125.29999999999845
20
-14.590364376270122
30
-4.4408920985006262e-15
40
4.9999999999984013
210
0
220
-2.2881548123462472e-16
230
1
100
AcDbArc
50
180
51
225.00000000000014
0
LINE
5
111
100
AcDbEntity
8
0
100
AcDbLine
10
124.83553390593337
20
-21.196966094068223
30
0
11
121.76446609406685
21
-18.125898282201742
31
-4.4408920985006262e-15
0
LINE
5
112
100
AcDbEntity
8
0
100
AcDbLine
10
126.30000000000025
20
-32.732499999999945
30
0
11
126.30000000000022
21
-24.732499999999938
31
3.5857313874703712e-31
0
LINE
5
113
100
AcDbEntity
8
0
100
AcDbLine
10
116.30000000000024
20
-32.732499999999945
30
0
11
126.30000000000025
21
-32.732499999999945
31
0
0
LINE
5
114
100
AcDbEntity
8
0
100
AcDbLine
10
-10.699999999999969
20
-32.732499999999945
30
0
11
116.30000000000024
21
-32.732499999999945
31
-5.0995788404005616e-44
0
LINE
5
115
100
AcDbEntity
8
0
100
AcDbLine
10
-10.699999999999967
20
75.767500000000069
30
-7.8961220754591544e-44
11
-10.699999999999969
21
-32.732499999999945
31
0
0
LWPOLYLINE
5
116
100
AcDbEntity
8
0
100
AcDbPolyline
90
4
70
1
43
0.0
10
-4.699999999999954
20
67.767500000000055
10
-4.6999999999999531
20
-29.232499999999952
10
105.30000000000004
20
-29.232499999999952
10
105.30000000000004
20
67.767500000000055
0
LINE
5
117
100
AcDbEntity
8
0
100
AcDbLine
10
-10.699999999999969
20
63.767500000000069
30
-3.9480610377295772e-44
11
111.30000000000007
21
63.767500000000076
31
-3.9480610377295772e-44
0
LINE
5
118
100
AcDbEntity
8
0
100
AcDbLine
10
111.30000000000004
20
-19.982499999999945
30
4.4408920985006262e-15
11
111.30000000000004
21
63.017500000000062
31
4.4408920985006262e-15
0
LINE
5
119
100
AcDbEntity
8
0
100
AcDbLine
10
-4.699999999999954
20
63.767500000000069
30
4.4408920985006262e-15
11
-10.699999999999969
21
63.767500000000069
31
-3.9480610377295772e-44
0
LINE
5
120
100
AcDbEntity
8
0
100
AcDbLine
10
111.30000000000007
20
63.767500000000076
30
-3.9480610377295772e-44
11
105.30000000000004
21
63.767500000000076
31
0
0
CIRCLE
5
121
100
AcDbEntity
8
0
100
AcDbCircle
10
108.30000000000005
20
63.767500000000076
30
-1.9740305188647886e-44
40
0.87500000000000011
210
0
220
0
230
1
0
CIRCLE
5
122
100
AcDbEntity
8
0
100
AcDbCircle
10
-7.699999999999962
20
63.767500000000069
30
2.2204460492503131e-15
40
0.87500000000000011
210
0
220
0
230
1
0
LINE
5
123
100
AcDbEntity
8
0
100
AcDbLine
10
-10.699999999999969
20
-20.732499999999945
30
-3.9480610377295772e-44
11
111.30000000000004
21
-20.732499999999945
31
-3.9480610377295772e-44
0
LINE
5
124
100
AcDbEntity
8
0
100
AcDbLine
10
111.30000000000004
20
-20.732499999999945
30
-3.9480610377295772e-44
11
105.30000000000004
21
-20.732499999999945
31
-3.9480610377295772e-44
0
LINE
5
125
100
AcDbEntity
8
0
100
AcDbLine
10
-10.699999999999969
20
-20.732499999999945
30
-3.9480610377295772e-44
11
-4.699999999999954
21
-20.732499999999945
31
4.4408920985006262e-15
0
CIRCLE
5
126
100
AcDbEntity
8
0
100
AcDbCircle
10
108.30000000000005
20
-20.732499999999945
30
-3.9480610377295772e-44
40
0.87500000000000011
210
0
220
0
230
1
0
CIRCLE
5
127
100
AcDbEntity
8
0
100
AcDbCircle
10
-7.699999999999962
20
-20.732499999999945
30
2.2204460492503131e-15
40
0.87500000000000011
210
0
220
0
230
1
0
LWPOLYLINE
5
128
100
AcDbEntity
8
0
100
AcDbPolyline
90
8
70
1
43
0.0
10
99.300000000000068
20
66.767500000000069
10
1.3000000000000456
20
66.767500000000069
42
0.41421356237309509
10
-3.6999999999999544
20
61.767500000000069
10
-3.6999999999999562
20
-23.232499999999948
42
0.41421356237309553
10
1.3000000000000433
20
-28.232499999999948
10
99.300000000000082
20
-28.232499999999959
42
0.41421356237309404
10
104.30000000000007
20
-23.232499999999952
10
104.30000000000007
20
61.767500000000062
42
0.41421356237309509
0
CIRCLE
5
129
100
AcDbEntity
8
0
100
AcDbCircle
10
-7.699999999999962
20
63.767500000000069
30
2.2204460492503131e-15
40
1.125
210
0
220
0
230
1
0
CIRCLE
5
130
100
AcDbEntity
8
0
100
AcDbCircle
10
108.30000000000005
20
63.767500000000076
30
-1.9740305188647886e-44
40
1.125
210
0
220
0
230
1
0
CIRCLE
5
131
100
AcDbEntity
8
0
100
AcDbCircle
10
108.30000000000005
20
-20.732499999999945
30
-3.9480610377295772e-44
40
1.125
210
0
220
0
230
1
0
CIRCLE
5
132
100
AcDbEntity
8
0
100
AcDbCircle
10
-7.699999999999962
20
-20.732499999999945
30
2.2204460492503131e-15
40
1.125
210
0
220
0
230
1
0
LINE
5
133
100
AcDbEntity
8
0
100
AcDbLine
10
129.47466353854563
20
75.767500000000069
30
8.2251271619380193e-45
11
129.4746635385456
21
67.767497914912298
31
-4.4408920985006301e-15
0
ARC
5
134
100
AcDbEntity
8
0
100
AcDbCircle
10
121.30000000000167
20
67.767500000000084
30
0
40
8.1746635385439266
210
5.2663132813984052e-31
220
-5.2663097095074399e-31
230
1
100
AcDbArc
50
314.99988421058907
51
359.99998538574926
0
LINE
5
135
100
AcDbEntity
8
0
100
AcDbLine
10
127.08034834044579
20
61.987128296422142
30
-6.0882352863504593e-30
11
124.00929221014772
21
58.916072166120976
31
-9.8607613152626476e-31
0
ARC
5
136
100
AcDbEntity
8
0
100
AcDbCircle
10
125.29999999999845
20
57.625364376270241
30
-4.4408920985006262e-15
40
1.8253364614675038
210
1.7203321051522408e-15
220
-1.7203321051522589e-15
230
1
100
AcDbArc
50
134.99999999999986
51
180.00004025431832
0
LINE
5
137
100
AcDbEntity
8
0
100
AcDbLine
10
123.47466353853106
20
46.625364376262326
30
-4.4408920985006262e-15
11
123.47466353853113
21
57.62536309387022
31
-2.2479722283808138e-15
0
LINE
5
138
100
AcDbEntity
8
0
100
AcDbLine
10
129.47466353854563
20
-32.732499999999931
30
0
11
129.4746635385456
21
-24.732499999999924
31
-8.9643284672572884e-32
0
ARC
5
139
100
AcDbEntity
8
0
100
AcDbCircle
10
121.30000000000166
20
-24.732499999999959
30
0
40
8.1746635385439248
210
1.0965990740768786e-32
220
4.481118468729137e-47
230
1
100
AcDbArc
50
0
51
45.000000000000384
0
LINE
5
140
100
AcDbEntity
8
0
100
AcDbLine
10
127.08036002202445
20
-18.95213997797709
30
8.2948280836137311e-16
11
124.00929221014775
21
-15.881072166100445
31
-4.4408920985006262e-15
0
ARC
5
141
100
AcDbEntity
8
0
100
AcDbCircle
10
125.29999999999845
20
-14.590364376270122
30
-4.4408920985006262e-15
40
1.8253364614674972
210
0
220
0
230
1
100
AcDbArc
50
180
51
224.99999999954773
0
LINE
5
142
100
AcDbEntity
8
0
100
AcDbLine
10
123.47466353853095
20
-14.590364376249704
30
-4.4408920985006262e-15
11
123.47466353853096
21
-3.5903643762610873
31
0
0
LINE
5
143
100
AcDbEntity
8
0
100
AcDbLine
10
123.47466353853096
20
-3.5903643762610873
30
0
11
123.47466353853106
21
46.625364376262326
31
-4.4408920985006262e-15
0
LINE
5
144
100
AcDbEntity
8
0
100
AcDbLine
10
129.47466353854563
20
-32.732499999999931
30
0
11
126.30000000000025
21
-32.732499999999945
31
0
0
LINE
5
145
100
AcDbEntity
8
0
100
AcDbLine
10
129.47466353854563
20
75.767500000000069
30
8.2251271619380193e-45
11
126.30000000000025
21
75.767500000000069
31
8.2251271619380193e-45
0
LINE
5
146
100
AcDbEntity
8
0
100
AcDbLine
10
120.30000000000027
20
51.625364376270127
30
-4.4408920985006262e-15
11
120.30000000000004
21
57.625364376270241
31
-4.4408920985006262e-15
0
LINE
5
147
100
AcDbEntity
8
0
100
AcDbLine
10
123.47466353853102
20
21.517500000000616
30
-4.4408920985006254e-15
11
133.51911106029686
21
21.517499999994367
31
-4.4408920985006254e-15
0
LINE
5
148
100
AcDbEntity
8
0
100
AcDbLine
10
120.30000000000004
20
-14.590364376270122
30
-4.4408920985006262e-15
11
120.30000000000001
21
-8.5903643762702284
31
-4.4408920985006262e-15
0
ARC
5
149
100
AcDbEntity
8
0
100
AcDbCircle
10
121.30000000000166
20
-24.732499999999959
30
0
40
4.9999999999985612
210
-7.1714627749428058e-32
220
-2.5478153897555236e-46
230
1
100
AcDbArc
50
0
51
45.000000000000185
0
ENDSEC
0
SECTION
2
OBJECTS
0
DICTIONARY
5
C
100
AcDbDictionary
3
ACAD_GROUP
350
D
3
ACAD_MLINESTYLE
350
17
0
DICTIONARY
5
D
100
AcDbDictionary
0
DICTIONARY
5
1A
330
C
100
AcDbDictionary
0
DICTIONARY
5
17
100
AcDbDictionary
0
ENDSEC
0
EOF
