<?xml version="1.0" encoding="utf-8"?>
<!-- Generator: Adobe Illustrator 23.1.0, SVG Export Plug-In . SVG Version: 6.00 Build 0)  -->
<svg version="1.1" id="_x30_" xmlns="http://www.w3.org/2000/svg" xmlns:xlink="http://www.w3.org/1999/xlink" x="0px" y="0px"
	 viewBox="0 0 398.05 308.27" style="enable-background:new 0 0 398.05 308.27;" xml:space="preserve">
<style type="text/css">
	.st0{fill:none;stroke:#000000;stroke-width:0.7087;stroke-linecap:round;stroke-linejoin:round;stroke-miterlimit:10;}
</style>
<g id="LINE">
	<line class="st0" x1="360.35" y1="0.35" x2="0.35" y2="0.35"/>
</g>
<g id="LINE_1_">
	<line class="st0" x1="360.35" y1="0.35" x2="388.7" y2="0.35"/>
</g>
<g id="LINE_10_">
	<line class="st0" x1="360.35" y1="307.91" x2="388.7" y2="307.91"/>
</g>
<g id="LINE_11_">
	<line class="st0" x1="0.35" y1="307.91" x2="360.35" y2="307.91"/>
</g>
<g id="LINE_12_">
	<line class="st0" x1="0.35" y1="0.35" x2="0.35" y2="307.91"/>
</g>
<g id="LINE_13_">
	<path class="st0" d="M346.18,34.37"/>
	<path class="st0" d="M0.35,34.37"/>
</g>
<g id="LINE_14_">
	<path class="st0" d="M346.18,36.5"/>
	<path class="st0" d="M346.18,271.77"/>
</g>
<g id="LINE_15_">
	<path class="st0" d="M0.35,34.37"/>
</g>
<g id="CIRCLE">
	<path class="st0" d="M335.2,34.37c0-1.37,1.11-2.48,2.48-2.48s2.48,1.11,2.48,2.48s-1.11,2.48-2.48,2.48S335.2,35.74,335.2,34.37
		L335.2,34.37z"/>
</g>
<g id="CIRCLE_1_">
	<path class="st0" d="M6.38,34.37c0-1.37,1.11-2.48,2.48-2.48s2.48,1.11,2.48,2.48s-1.11,2.48-2.48,2.48S6.38,35.74,6.38,34.37
		L6.38,34.37z"/>
</g>
<g id="LINE_17_">
	<path class="st0" d="M346.18,273.9"/>
	<path class="st0" d="M0.35,273.9"/>
</g>
<g id="LINE_19_">
	<path class="st0" d="M17.36,273.9"/>
	<path class="st0" d="M0.35,273.9"/>
</g>
<g id="CIRCLE_2_">
	<path class="st0" d="M335.2,273.9c0-1.37,1.11-2.48,2.48-2.48s2.48,1.11,2.48,2.48s-1.11,2.48-2.48,2.48S335.2,275.27,335.2,273.9
		L335.2,273.9z"/>
</g>
<g id="CIRCLE_3_">
	<path class="st0" d="M6.38,273.9c0-1.37,1.11-2.48,2.48-2.48s2.48,1.11,2.48,2.48s-1.11,2.48-2.48,2.48S6.38,275.27,6.38,273.9
		L6.38,273.9z"/>
</g>
<g id="LWPOLYLINE_1_">
	<path class="st0" d="M312.17,25.87H34.37c-7.83,0-14.17,6.35-14.17,14.17v240.94c0,7.83,6.35,14.17,14.17,14.17h277.8
		c7.83,0,14.17-6.35,14.17-14.17V40.04C326.34,32.21,319.99,25.87,312.17,25.87z"/>
</g>
<g id="LINE_20_">
	<line class="st0" x1="397.7" y1="0.35" x2="397.7" y2="23.03"/>
</g>
<g id="ARC_3_">
	<path class="st0" d="M390.91,39.42c4.35-4.35,6.79-10.24,6.79-16.39"/>
</g>
<g id="LINE_21_">
	<line class="st0" x1="390.91" y1="39.42" x2="382.21" y2="48.12"/>
</g>
<g id="ARC_4_">
	<path class="st0" d="M382.21,48.12c-0.97,0.97-1.52,2.29-1.52,3.66"/>
</g>
<g id="LINE_22_">
	<line class="st0" x1="380.69" y1="82.96" x2="380.69" y2="51.78"/>
</g>
<g id="LINE_23_">
	<line class="st0" x1="397.7" y1="307.91" x2="397.7" y2="285.24"/>
</g>
<g id="ARC_5_">
	<path class="st0" d="M397.7,285.24c0-6.15-2.44-12.04-6.79-16.39"/>
</g>
<g id="LINE_24_">
	<line class="st0" x1="390.91" y1="268.85" x2="382.21" y2="260.15"/>
</g>
<g id="ARC_6_">
	<path class="st0" d="M380.69,256.49c0,1.37,0.55,2.69,1.52,3.66"/>
</g>
<g id="LINE_25_">
	<line class="st0" x1="380.69" y1="256.49" x2="380.69" y2="225.31"/>
</g>
<g id="LINE_26_">
	<line class="st0" x1="380.69" y1="225.31" x2="380.69" y2="82.96"/>
</g>
<g id="LINE_27_">
	<line class="st0" x1="397.7" y1="307.91" x2="388.7" y2="307.91"/>
</g>
<g id="LINE_28_">
	<line class="st0" x1="397.7" y1="0.35" x2="388.7" y2="0.35"/>
</g>
</svg>
